<svg height='100px' width='100px'  fill="#ffffff" xmlns="http://www.w3.org/2000/svg" viewBox="0 0 64 64" x="0px" y="0px"><title>School</title><g data-name="22. Language"><path d="M40,11c-7.691,0-14.19659,4.23041-16.28784,10.012C14.4718,21.14032,7,27.36029,7,35a12.5971,12.5971,0,0,0,4,9.00781V52a.9999.9999,0,0,0,1.63965.76855l5.54492-4.61474A20.19853,20.19853,0,0,0,24,49c7.69025,0,14.19537-4.22955,16.28729-10.01031a20.17062,20.17062,0,0,0,5.52814-.83588l5.54492,4.61474A.99993.99993,0,0,0,53,42V34.0083A12.599,12.599,0,0,0,57,25C57,17.28027,49.374,11,40,11ZM51,33.5791v6.2876l-4.3252-3.59961a.99936.99936,0,0,0-.9541-.18066,18.05732,18.05732,0,0,1-4.90875.88171A11.57005,11.57005,0,0,0,41,35a12.08673,12.08673,0,0,0-2.30011-7h3.80988l1.54882,4.33643a.99972.99972,0,1,0,1.88282-.67286l-5-14a.99958.99958,0,0,0-1.88282,0l-2.752,7.70551A18.49735,18.49735,0,0,0,25.83612,21.085C27.87134,16.38739,33.44385,13,40,13c8.27148,0,15,5.3833,15,12a10.7167,10.7167,0,0,1-3.67773,7.84424A1.00056,1.00056,0,0,0,51,33.5791ZM24,47a18.143,18.143,0,0,1-5.7207-.91357.99533.99533,0,0,0-.9541.18066L13,49.8667V43.57861a.99977.99977,0,0,0-.32227-.73486A10.71405,10.71405,0,0,1,9,35c0-6.6167,6.72852-12,15-12s15,5.3833,15,12S32.27148,47,24,47ZM38.20459,26,40,20.97314,41.79541,26Z"></path><path d="M26.98047,33.58887C26.999,33.2627,27,33.05127,27,33a1,1,0,0,0-2,0c0,.00537,0,.05176-.00293.13232a14.513,14.513,0,0,0-1.92462-.12994q.04853-.95307.12085-1.71881A11.651,11.651,0,0,0,26.55469,29.832,1,1,0,1,0,25.44531,28.168a8.5913,8.5913,0,0,1-1.96594.934,8.47115,8.47115,0,0,1,.422-1.66888,1.00007,1.00007,0,0,0-1.7959-.88038,11.04713,11.04713,0,0,0-.73987,3.09821A20.93784,20.93784,0,0,1,17.999,30,1,1,0,0,0,18,32a21.73766,21.73766,0,0,0,3.14783-.27936c-.03491.4588-.064.96033-.08765,1.49542A4.87121,4.87121,0,0,0,17,38a3.83372,3.83372,0,0,0,4,4,5.41824,5.41824,0,0,0,.96887-.09344,3.86214,3.86214,0,0,0,1.58386,1.988,1.03631,1.03631,0,0,0,.46387.10889,1.00237,1.00237,0,0,0,.90332-.542.97413.97413,0,0,0-.4209-1.32764,2.553,2.553,0,0,1-.67492-.98792c1.79046-1.25128,2.575-3.63971,2.91418-5.51306C28.19336,36.21387,29,37.11621,29,38a3.43742,3.43742,0,0,1-2.31641,3.05127,1.0001,1.0001,0,1,0,.63282,1.89746C27.4668,42.89844,31,41.67822,31,38,31,36.24658,29.63184,34.478,26.98047,33.58887ZM21,40a1.88286,1.88286,0,0,1-2-2,2.79949,2.79949,0,0,1,2.006-2.68073C21.00385,35.54535,21,35.763,21,36a19.20628,19.20628,0,0,0,.36536,3.97418A3.12475,3.12475,0,0,1,21,40Zm2.21759-.99872A18.5853,18.5853,0,0,1,23,36c0-.3479.0036-.677.00842-.99969a12.24861,12.24861,0,0,1,1.78943.12664A7.849,7.849,0,0,1,23.21759,39.00128Z"></path></g></svg>